<?xml version="1.0" encoding="utf-8"?>
<!-- Generator: Adobe Illustrator 25.4.1, SVG Export Plug-In . SVG Version: 6.00 Build 0)  -->
<svg version="1.1" id="Lager_1" xmlns="http://www.w3.org/2000/svg" xmlns:xlink="http://www.w3.org/1999/xlink" x="0px" y="0px"
	 viewBox="0 0 693.97 592.15" style="enable-background:new 0 0 693.97 592.15;" width="30rem" xml:space="preserve">
<style type="text/css">
	.st0{fill:#FFFFFF;}
	.st1{fill:#EC7D0D;}
	.st2{fill:#FE9017;}
	.st3{fill:#D86E0F;}
	.st4{fill:#EF9236;}
	.st5{fill:#EF9D3E;}
	.st6{fill:#D68033;}
	.st7{fill:#511C10;}
</style>
<g>
	<g>
		<path class="st0" d="M319.78,244.34c15.74-26.23,37.51-48.22,59.07-69.92c25.73-25.91,51.45-51.81,77.18-77.72
			c18.44-18.56,37.74-37.69,62.37-46.5c15.97-5.71,29.76-5.89,43.5-0.51c28.36,11.09,45.46,45.23,38.53,74.88
			c-2.41,10.31-3.24,15.38-10.89,27.64c-10.64,17.05-25.94,30.72-39.71,45.37c-11,11.71-22.44,23.19-35.82,32.09
			c-27.92,18.58-62.07,24.64-95.13,30.27c-22.09,3.76-44.22,7.53-66.57,9.22c-8.11,0.62-16.71,0.86-23.87-3.02
			s-11.92-13.31-7.98-20.43"/>
	</g>
	<g>
		<path class="st0" d="M201.66,390.29c-4.64-5.24-12.33-7.56-19.09-5.78c-6.42,13.41-18.8,23.83-33.11,27.86
			c-12.77,3.59-26.43,2.24-39.44,4.83s-26.63,11.28-27.83,24.49c-12.04-0.58-23.83-13.81-34.05-7.42
			c-5.52,3.45-6.68,10.88-7.08,17.37c-1.56,25.13,0.02,50.46,4.69,75.2c1.01,5.34,2.32,10.96,6.12,14.85
			c5.69,5.82,15.44,5.79,22.72,2.15s12.66-10.11,17.83-16.4c35.01,19.67,78.97,17.56,116.69,3.78c37.72-13.78,70.57-38,102.84-61.9
			c8.49-6.29,32.51-25.52,36.26-35.4c2.73-7.2-12.76-2.86-14.64-10.33c-6.59-26.25-31.09-45.54-57.55-51.22s-54.29,0.45-79.01,11.46
			"/>
	</g>
	<g>
		<path class="st1" d="M316.34,444.62c-5.85,5.63-11.89,11.01-18.13,16.11c-27.1,22.17-57.82,39.31-91.98,51.61
			c-18.73,6.75-38.01,11.5-57.74,14.4c-19.35,2.85-35.89-2-48.73-17.26c-1.46-1.74-2.49-0.84-3.76-0.12
			c-8.41,4.8-16.82,9.61-25.24,14.39c-4.68,2.66-6.32,2.36-9.57-1.67v-66.43c3.06-4.07,4.94-4.45,9.52-1.85
			c6.64,3.77,13.27,7.56,19.91,11.34c-0.99,6.34-2.46,12.6-1.43,19.16c0.81,5.21,2.15,10.19,4.14,15.04
			c0.32,0.78,0.94,1.23,1.67,1.63c4.97,2.7,10.35,4.2,15.93,4.61c8.89,0.67,17.72-0.51,26.41-2.19c19.33-3.74,38.2-9.13,56.58-16.25
			c21.43-8.31,41.73-18.83,60.67-31.77c3.46-2.36,6.87-4.78,10.23-7.26c1.12-0.83,2.24-1.66,3.35-2.5c0.72-0.54,1.44-1.09,2.15-1.65
			c0.25-0.18,0.51-0.37,0.76-0.58c0.76-0.58,1.51-1.17,2.26-1.77c2.16-1.69,4.31-3.43,6.42-5.2c0.75-0.62,1.49-1.25,2.23-1.88
			c0.04-0.03,0.08-0.06,0.11-0.09c1.23,1.24,2.56,2.36,3.99,3.33c6.56,4.46,14.2,6.52,22.12,6.96
			C310.9,444.87,313.62,444.83,316.34,444.62z"/>
		<path class="st2" d="M278.17,429.61c1.15,1.75,2.46,3.38,3.93,4.83c-0.03,0.03-0.07,0.06-0.11,0.09
			c-0.74,0.64-1.48,1.26-2.23,1.88c-2.11,1.77-4.26,3.51-6.42,5.2c-0.75,0.6-1.5,1.19-2.26,1.77c-0.25,0.21-0.51,0.4-0.76,0.58
			c-0.71,0.56-1.43,1.11-2.15,1.65c-1.11,0.84-2.23,1.67-3.35,2.5c-3.36,2.48-6.77,4.9-10.23,7.26
			c-18.94,12.94-39.24,23.46-60.67,31.77c-18.38,7.12-37.25,12.51-56.58,16.25c-8.69,1.68-17.52,2.86-26.41,2.19
			c-5.58-0.41-10.96-1.91-15.93-4.61c-0.73-0.4-1.35-0.85-1.67-1.63c-1.99-4.85-3.33-9.83-4.14-15.04
			c-1.03-6.56,0.44-12.82,1.43-19.16c3.4-9.75,8.69-18.21,16.94-24.62c6.86-5.33,14.57-8.78,23.23-9.82
			c7.67-0.91,15.26-2.25,22.81-3.88c1.42,8.55,4.7,16.58,7.12,24.85c0.77,2.61,4.15,3.84,6.49,2.99c2.73-1,4.05-3.66,3.17-6.62
			c-2.36-7.95-4.77-15.88-7.16-23.81c10.45-3.45,20.73-7.33,30.72-11.97c0.96,1.68,1.92,3.36,2.86,5.04
			c3.23,5.76,6.39,11.54,9.69,17.25c2.02,3.49,5.02,4.62,7.57,3.23c2.34-1.28,3.78-4.28,1.43-8.58c-3.96-7.28-8.5-14.24-11.96-21.79
			c0.42-0.26,0.84-0.52,1.26-0.78c2.1,1.14,4.32,2.1,6.61,2.91c4.35,1.53,8.97,2.45,13.59,2.77c2.4,0.17,4.8,0.18,7.16,0.02
			c3.76-0.25,7.46-0.83,11.1-1.66c1.21,1.2,2.43,2.39,3.66,3.57c3.13,3,6.18,3.1,8.42,0.68c2.01-2.17,1.84-4.96-0.54-7.69
			c8.48-3.07,16.71-7.12,24.79-11.14C270.45,404.46,271.28,419.12,278.17,429.61z"/>
		<path class="st3" d="M255.33,414.92c-2.24,2.42-5.29,2.32-8.42-0.68c-1.23-1.18-2.45-2.37-3.66-3.57
			c3.9-0.88,7.75-2.06,11.54-3.44C257.17,409.96,257.34,412.75,255.33,414.92z"/>
		<path class="st3" d="M203.53,407.4c3.47,7.55,8,14.51,11.97,21.79c2.34,4.3,0.91,7.31-1.43,8.58c-2.55,1.39-5.55,0.26-7.57-3.23
			c-3.3-5.71-6.47-11.5-9.69-17.25c-0.95-1.69-1.91-3.36-2.86-5.04C196.98,410.32,200.21,408.77,203.53,407.4z"/>
		<path class="st3" d="M163.22,424.22c2.39,7.94,4.8,15.87,7.17,23.81c0.88,2.96-0.44,5.62-3.17,6.62
			c-2.35,0.86-5.73-0.38-6.49-2.99c-2.42-8.27-5.71-16.29-7.13-24.85C156.73,425.69,159.91,424.72,163.22,424.22z"/>
	</g>
	<g>
		<path class="st4" d="M279.58,396.09c-4.07,3.73-6.16,8.71-6.62,14.01c-4.19-1.16-8.3-2.89-12.25-5.18
			C267.12,402.26,273.39,399.16,279.58,396.09z"/>
		<path class="st4" d="M581.65,109.88v13.51c-0.77,2.87-1.47,5.76-2.35,8.6c-2.54,8.23-7.15,15.21-13.21,21.25
			c-22.04,22-44.08,44-66.12,66c-6.79-1.81-14.25-1.84-21.1-0.29c-14.01,3.18-26.14,11.66-37.86,19.96
			c-5.54-6.88-14.72-8.69-23.83-9.11c3.79-3.78,7.58-7.57,11.37-11.36c0.93-0.93,2.21-1.66,2.24-3.22
			c6.92-0.31,13.86-0.6,20.66-2.09c14.21-3.1,26.8-9.39,37.55-19.24c0.7-0.65,1.98-1.27,1.6-2.34c-0.41-1.17-1.78-0.61-2.72-0.61
			c-10.24-0.04-20.48-0.03-30.72-0.04c0.04-1.56,1.32-2.29,2.25-3.22c13.61-13.61,27.25-27.2,40.86-40.82
			c0.92-0.92,2.2-1.66,2.23-3.22c0.86-0.22,1.72-0.63,2.59-0.63c12.44-0.08,23.79-4.04,34.57-9.85c6.46-3.48,12.37-7.75,17.91-13.83
			h-28.69c0.03-1.56,1.31-2.29,2.23-3.21c10.87-10.88,21.76-21.73,32.63-32.61c0.92-0.92,2.2-1.63,2.36-3.15
			c5.74,4.93,9.43,11.22,12.28,18.13C579.9,102.18,580.31,106.16,581.65,109.88z"/>
		<path class="st5" d="M566.1,80.36c-0.16,1.52-1.44,2.23-2.36,3.15c-10.87,10.88-21.76,21.73-32.63,32.61
			c-0.92,0.92-2.2,1.65-2.23,3.21c-6.84,0-13.65,0.5-20.45,1.32c-15.87,1.91-29.56,8.66-41.76,18.67c-1.36,1.11-2.98,2.22-3.64,4.32
			h39.47c-0.03,1.56-1.31,2.3-2.23,3.22c-13.61,13.62-27.25,27.21-40.86,40.82c-0.93,0.93-2.21,1.66-2.25,3.22
			c-27.66,0.04-51.21,12.55-59.56,24.32h33.19c-0.03,1.56-1.31,2.29-2.24,3.22c-3.79,3.79-7.58,7.58-11.37,11.36
			c-2.29-0.11-4.58-0.13-6.81-0.12c-5.89,0.02-11.9,1.21-17.68,0.07c-20.08-3.95-33.44-3.49-46.87,0.14
			c49.47-49.37,98.94-98.75,148.39-148.14c8.23-8.21,17.91-13.47,29.48-15.16c0.4-0.06,0.76-0.39,1.14-0.6h11.5
			c0.45,0.67,1.18,0.54,1.82,0.63C548.96,68.18,558.32,72.68,566.1,80.36z"/>
		<path class="st6" d="M502.51,143.63c-13.06,0-26.12,0-39.48,0c0.67-2.1,2.29-3.2,3.64-4.32c12.2-10.01,25.89-16.77,41.77-18.67
			c6.8-0.82,13.6-1.31,20.44-1.31c9.3,0,18.61,0,28.69,0c-5.54,6.08-11.45,10.35-17.91,13.83c-10.78,5.81-22.13,9.76-34.57,9.84
			C504.23,143.01,503.37,143.41,502.51,143.63z"/>
		<path class="st6" d="M430.79,215.21c-11.03,0-22.07,0-33.19,0c8.35-11.77,31.9-24.28,59.56-24.31c10.24,0,20.48-0.01,30.72,0.04
			c0.94,0,2.3-0.56,2.72,0.61c0.38,1.07-0.9,1.69-1.6,2.34c-10.75,9.85-23.34,16.14-37.55,19.24
			C444.65,214.61,437.72,214.9,430.79,215.21z"/>
	</g>
	<g>
		<path class="st0" d="M122.19,341.95c-2.44,19.7-8.56,37.94-11,57.64c-0.37,3.01-0.61,6.45,1.46,8.66
			c1.82,1.94,4.76,2.18,7.42,2.27c14.3,0.47,32.64,0.93,46.87-0.63c11.1-1.22,25.56-7.88,22.58-18.64
			c7.34,15.14,25.84,22.19,42.63,21.08c16.79-1.11,32.36-8.75,47.43-16.24c-11.92,10.93-6.87,32.6,6.51,41.68
			c13.38,9.08,31.25,8.24,46.81,3.82c14.24-4.05,30.26-16.13,25.62-30.19c13.02,14.91,41.93,8.75,47.74-10.17
			c11.1,12.15,28.3,17.87,43.93,12.72c15.06-4.96,14.46-12.68,29-19c-2,8,0.8,13.07,6.63,19.4c5.83,6.33,14.93,8.89,23.53,8.41
			c16.61-0.93,32.25-13.59,35.33-29.94c1.28,9.41,10.38,16.2,19.72,17.94c9.34,1.74,18.91-0.47,28.15-2.66
			c5.08-1.21,10.36-2.51,14.4-5.82c3.55-2.91,5.79-7.11,7.65-11.31c22.84-51.51,1.78-117.16,35.77-163.22c1.73-2.34,2.85-5.1,3.08-8
			c0.97-12.08-12.94-14.75-23.4-14.59c-10.21,0.16-20.73,0.52-30.05,4.7c-9.32,4.18-17.23,13.15-17.04,23.36
			c-2.85-11.38-14.74-18.64-26.41-19.84c-10.6-1.09-21.12,1.75-31.34,4.92c-1.96,0.61-3.52,2.08-4.25,4l-3.28,8.69
			c-8.26-11.75-24.78-15.2-38.79-12.03c-14.01,3.17-26.14,11.66-37.86,19.96c-6.94-8.61-19.58-9.28-30.64-9.23
			c-5.89,0.03-11.89,1.21-17.67,0.08c-29.5-5.8-44.52-2.1-66.5,7.2c-9.22-12.7,4.24-26.3,4-42c-0.18-11.9-14-24.53-25.22-28.53
			c-11.21-4-24.73-0.35-32.41,8.75c-10.71-7.93-26.02-9.09-37.8-2.86c-11.78,6.23-19.44,19.54-18.91,32.85
			c0.17,4.31,2.89,14.31-0.2,17.32c-1.69,1.64-4.12,2.21-6.42,2.71c-15.97,3.47-37.94,0.95-53.91,4.42
			c-3.36,0.73-6.91,1.55-9.41,3.92c-2.18,2.06-3.25,5-4.22,7.83L122.19,341.95z"/>
	</g>
	<g>
		<g>
			<path class="st7" d="M142.28,383.23c-4.4,0.93-8.27,1.8-11.6,2.6c1.6-5.73,3.17-12.17,4.7-19.3c1.53-7.13,3.07-14.63,4.6-22.5
				c1.53-7.87,3-15.83,4.4-23.9c1.4-8.07,2.77-15.83,4.1-23.3c2.8-17.73,5.6-36.07,8.4-55l67-3.4l-5.8,24.6h-31.4l-6.2,35.6
				c4.13-0.13,8.07-0.2,11.8-0.2c3.07,0,6.2,0,9.4,0s5.67-0.07,7.4-0.2c-0.4,3.73-0.9,7.4-1.5,11c-0.6,3.6-1.17,7.2-1.7,10.8
				c-1.73,0-4.2-0.03-7.4-0.1c-3.2-0.07-6.5-0.17-9.9-0.3c-3.4-0.13-7.23-0.27-11.5-0.4l-9.2,59c-4.53,0.8-9,1.67-13.4,2.6
				C150.75,381.5,146.68,382.3,142.28,383.23z"/>
			<path class="st7" d="M273.38,366.03c-3.4,5.33-7.4,9.73-12,13.2c-4.6,3.47-9.5,6-14.7,7.6c-5.2,1.6-10.4,2.4-15.6,2.4
				c-3.07,0-6.2-0.5-9.4-1.5c-3.2-1-6.07-2.5-8.6-4.5c-2.53-2-4.63-4.53-6.3-7.6c-1.67-3.07-2.5-6.67-2.5-10.8c0-0.53,0-1.07,0-1.6
				c0-0.53,0.07-1.07,0.2-1.6c0.53-5.47,1.4-12.07,2.6-19.8c1.2-7.73,2.47-15.8,3.8-24.2c1.33-8.4,2.8-16.83,4.4-25.3
				c1.6-8.47,3.03-16.17,4.3-23.1c1.27-6.93,2.37-12.7,3.3-17.3c0.93-4.6,1.53-7.43,1.8-8.5c2.8-0.27,6.13-0.6,10-1
				c3.87-0.4,7.46-0.73,10.8-1c4.13-0.4,8.2-0.8,12.2-1.2c-3.47,16.13-6.54,30.73-9.2,43.8c-1.2,5.6-2.37,11.2-3.5,16.8
				c-1.13,5.6-2.2,10.73-3.2,15.4c-1,4.67-1.87,8.7-2.6,12.1c-0.73,3.4-1.33,6.17-1.8,8.3c-0.47,2.13-1,4.83-1.6,8.1
				c-0.6,3.27-0.9,6.23-0.9,8.9c0,2.13,0.53,3.9,1.6,5.3c1.07,1.4,2.4,2.1,4,2.1c2.27,0,4.13-0.9,5.6-2.7c1.47-1.8,2.7-3.97,3.7-6.5
				c1-2.53,1.73-5.1,2.2-7.7c0.47-2.6,0.9-4.63,1.3-6.1c0.8-3.87,1.7-8.17,2.7-12.9c1-4.73,2-9.67,3-14.8c1-5.13,2-10.37,3-15.7
				c1-5.33,1.97-10.53,2.9-15.6c2.27-11.73,4.47-23.87,6.6-36.4l30.4-2c-1.33,6.93-2.53,13.27-3.6,19
				c-1.07,5.73-2.23,12.27-3.5,19.6c-1.27,7.33-2.7,14.97-4.3,22.9c-1.6,7.93-3.17,15.73-4.7,23.4c-1.53,7.67-3.03,14.7-4.5,21.1
				C279.41,354.23,276.78,360.7,273.38,366.03z M267.98,210.93c-0.87,2.2-2.23,4.17-4.1,5.9c-1.87,1.73-4.13,3.17-6.8,4.3
				c-2.67,1.13-5.67,1.7-9,1.7c-5.33,0-9.33-1.77-12-5.3c-2.67-3.53-4-7.5-4-11.9c0-2.27,0.37-4.47,1.1-6.6
				c0.73-2.13,1.83-4,3.3-5.6c1.47-1.6,3.33-2.93,5.6-4c2.27-1.07,4.93-1.6,8-1.6c6.53,0,11.37,1.67,14.5,5
				c3.13,3.33,4.7,7.07,4.7,11.2C269.28,206.43,268.84,208.73,267.98,210.93z M314.48,210.93c-0.93,2.2-2.3,4.17-4.1,5.9
				c-1.8,1.73-4,3.17-6.6,4.3c-2.6,1.13-5.7,1.7-9.3,1.7c-5.33,0-9.33-1.77-12-5.3c-2.67-3.53-4-7.5-4-11.9
				c0-2.27,0.37-4.47,1.1-6.6c0.73-2.13,1.83-4,3.3-5.6c1.47-1.6,3.37-2.93,5.7-4c2.33-1.07,5.03-1.6,8.1-1.6
				c6.4,0,11.2,1.67,14.4,5c3.2,3.33,4.8,7.07,4.8,11.2C315.88,206.43,315.41,208.73,314.48,210.93z"/>
			<path class="st7" d="M356.58,361.73c-3.93,5.4-8.07,9.93-12.4,13.6c-4.33,3.67-8.7,6.37-13.1,8.1c-4.4,1.73-8.67,2.6-12.8,2.6
				c-4.13,0-7.9-0.93-11.3-2.8c-3.4-1.87-6.37-4.67-8.9-8.4c-2.54-3.73-4.57-8.33-6.1-13.8c-1.53-5.46-2.3-11.87-2.3-19.2
				c0-12.53,1.73-24.9,5.2-37.1c3.47-12.2,8.33-23.17,14.6-32.9c6.27-9.73,13.7-17.57,22.3-23.5c8.6-5.93,18.1-8.9,28.5-8.9
				c3.2,0,6.27,0.67,9.2,2c2.93,1.33,5.47,3.2,7.6,5.6c2.13,2.4,3.83,5.33,5.1,8.8c1.27,3.47,1.9,7.33,1.9,11.6c0,0.8,0,1.63,0,2.5
				c0,0.87-0.07,1.77-0.2,2.7l-26.2,7c-1.6-3.33-3.47-5-5.6-5c-2.13,0-4.37,1.23-6.7,3.7c-2.33,2.47-4.63,5.67-6.9,9.6
				c-2.27,3.93-4.47,8.33-6.6,13.2c-2.13,4.87-4,9.77-5.6,14.7c-1.6,4.93-2.9,9.63-3.9,14.1c-1,4.47-1.5,8.1-1.5,10.9
				c0,4.27,0.57,7.27,1.7,9c1.13,1.73,2.63,2.6,4.5,2.6c1.46,0,3.13-0.57,5-1.7c1.87-1.13,3.6-2.6,5.2-4.4
				c1.6-1.8,3.07-3.83,4.4-6.1c1.33-2.27,2.27-4.53,2.8-6.8l22.8,9.2C364.08,349.97,360.51,356.33,356.58,361.73z M343.18,406.93
				c-1.4,2.33-3.3,4.37-5.7,6.1c-2.4,1.73-5.23,3.1-8.5,4.1c-3.27,1-6.83,1.5-10.7,1.5c-3.2,0-6.3-0.6-9.3-1.8
				c-3-1.2-5.5-3.07-7.5-5.6l3.8-17.6c3.47,3.73,7,5.6,10.6,5.6c2.93,0,5.37-1.07,7.3-3.2c1.93-2.13,2.9-4.87,2.9-8.2
				c0-1.6-0.33-3.6-1-6c2.4,0.27,4.37,0.53,5.9,0.8c1.53,0.27,2.93,0.5,4.2,0.7c1.27,0.2,1.97,0.3,2.1,0.3c5.33,5.2,8,10.4,8,15.6
				C345.28,402.03,344.58,404.6,343.18,406.93z"/>
			<path class="st7" d="M391.57,382.13c-3.54,0.33-7.17,0.73-10.9,1.2c-3.73,0.47-7.1,0.9-10.1,1.3c-3,0.4-4.63,0.67-4.9,0.8
				c1.33-5.73,2.7-12.1,4.1-19.1c1.4-7,2.83-14.33,4.3-22c1.46-7.67,2.87-15.43,4.2-23.3c1.33-7.87,2.6-15.46,3.8-22.8
				c2.8-17.07,5.6-34.6,8.4-52.6l31.2-5c-3.07,17.87-6.07,35.4-9,52.6c-1.2,7.33-2.43,14.93-3.7,22.8
				c-1.27,7.87-2.53,15.67-3.8,23.4c-1.27,7.73-2.43,15.23-3.5,22.5c-1.07,7.27-2.07,13.83-3,19.7
				C397.47,381.63,395.11,381.8,391.57,382.13z"/>
			<path class="st7" d="M513.57,308.33c-2.33,9.67-5.43,18.53-9.3,26.6c-3.87,8.07-8.37,15.27-13.5,21.6
				c-5.13,6.33-10.5,11.73-16.1,16.2c-5.6,4.47-11.27,7.87-17,10.2c-5.73,2.33-11.2,3.5-16.4,3.5c-4.4,0-8.4-0.83-12-2.5
				c-3.6-1.67-6.73-4.13-9.4-7.4c-2.67-3.27-4.77-7.46-6.3-12.6c-1.53-5.13-2.3-11.3-2.3-18.5c0-7.47,0.93-15.33,2.8-23.6
				c1.87-8.27,4.4-16.47,7.6-24.6c3.2-8.13,7.13-15.87,11.8-23.2c4.67-7.33,9.8-13.83,15.4-19.5c5.6-5.67,11.6-10.17,18-13.5
				c6.4-3.33,13.07-5,20-5c6,0,10.97,1.23,14.9,3.7c3.93,2.47,7,5.67,9.2,9.6c2.2,3.93,3.77,8.37,4.7,13.3
				c0.93,4.93,1.4,9.87,1.4,14.8C517.07,288.37,515.9,298.67,513.57,308.33z M441.87,344.83c0.53,1.6,1.27,3,2.2,4.2
				c0.93,1.2,2.1,2.23,3.5,3.1c1.4,0.87,2.9,1.3,4.5,1.3c6,0,11.33-2.07,16-6.2c4.67-4.13,8.53-9.2,11.6-15.2
				c3.07-6,5.43-12.4,7.1-19.2c1.67-6.8,2.5-13,2.5-18.6c0-1.6-0.1-3.33-0.3-5.2c-0.2-1.87-0.6-3.6-1.2-5.2
				c-0.6-1.6-1.53-2.97-2.8-4.1c-1.27-1.13-2.97-1.7-5.1-1.7c-4.27,0-8.2,1.07-11.8,3.2c-3.6,2.13-6.83,4.97-9.7,8.5
				c-2.87,3.53-5.37,7.53-7.5,12c-2.13,4.47-3.97,9-5.5,13.6c-1.53,4.6-2.63,9.1-3.3,13.5c-0.67,4.4-1,8.2-1,11.4
				C441.07,341.7,441.34,343.23,441.87,344.83z"/>
			<path class="st7" d="M504.67,386.63c4-19.2,7.8-37.8,11.4-55.8c1.33-7.73,2.77-15.73,4.3-24c1.53-8.27,2.97-16.43,4.3-24.5
				c1.33-8.07,2.53-15.8,3.6-23.2c1.07-7.4,1.87-14.1,2.4-20.1c1.73,0.13,3.2,0.2,4.4,0.2c1.2,0,2.6,0,4.2,0
				c1.87,0,4.13-0.03,6.8-0.1c2.67-0.07,5.33-0.17,8-0.3c2.67-0.13,5.53-0.27,8.6-0.4c1.87,9.33,3.53,18.33,5,27
				c1.47,7.6,2.97,15.4,4.5,23.4c1.53,8,2.9,14.8,4.1,20.4c0.53-2.67,1.13-5.77,1.8-9.3c0.67-3.53,1.4-7.23,2.2-11.1
				c0.8-3.87,1.57-7.77,2.3-11.7c0.73-3.93,1.5-7.83,2.3-11.7c1.87-8.67,3.8-17.6,5.8-26.8l24.4-3c-4.54,20.4-8.54,39.73-12,58
				c-1.6,7.87-3.17,15.83-4.7,23.9c-1.53,8.07-2.97,15.8-4.3,23.2c-1.33,7.4-2.47,14.27-3.4,20.6c-0.93,6.33-1.67,11.63-2.2,15.9
				c-0.4,0-1.97,0.3-4.7,0.9c-2.73,0.6-5.87,1.3-9.4,2.1c-3.53,0.8-7.07,1.6-10.6,2.4c-3.53,0.8-6.17,1.53-7.9,2.2
				c-0.8-10.67-1.67-20.8-2.6-30.4c-0.4-4.13-0.83-8.37-1.3-12.7c-0.47-4.33-0.97-8.5-1.5-12.5c-0.53-4-1.07-7.73-1.6-11.2
				c-0.53-3.46-1.07-6.46-1.6-9c-0.4,2.54-0.93,5.47-1.6,8.8c-0.67,3.33-1.33,6.87-2,10.6c-0.67,3.73-1.33,7.63-2,11.7
				c-0.67,4.07-1.4,7.97-2.2,11.7c-1.73,8.93-3.6,18.27-5.6,28L504.67,386.63z"/>
		</g>
	</g>
</g>
</svg>
